<mxfile host="app.diagrams.net" agent="Mozilla/5.0 (Windows NT 10.0; Win64; x64) AppleWebKit/537.36 (KHTML, like Gecko) Chrome/131.0.0.0 Safari/537.36" version="25.0.3">
  <diagram name="Page-1" id="NYbftp7tVazwXSQ7nYcW">
    <mxGraphModel dx="1050" dy="565" grid="1" gridSize="10" guides="1" tooltips="1" connect="1" arrows="1" fold="1" page="1" pageScale="1" pageWidth="850" pageHeight="1100" math="0" shadow="0">
      <root>
        <mxCell id="0" />
        <mxCell id="1" parent="0" />
        <mxCell id="3dAcGPY2wm8vC8ehP3SY-1" value="&lt;font style=&quot;font-size: 20px;&quot;&gt;Federation&lt;/font&gt;" style="whiteSpace=wrap;html=1;align=center;" vertex="1" parent="1">
          <mxGeometry x="130" y="130" width="150" height="50" as="geometry" />
        </mxCell>
        <mxCell id="3dAcGPY2wm8vC8ehP3SY-9" style="edgeStyle=orthogonalEdgeStyle;rounded=0;orthogonalLoop=1;jettySize=auto;html=1;exitX=0.5;exitY=1;exitDx=0;exitDy=0;" edge="1" parent="1" source="3dAcGPY2wm8vC8ehP3SY-2">
          <mxGeometry relative="1" as="geometry">
            <mxPoint x="85" y="140" as="targetPoint" />
          </mxGeometry>
        </mxCell>
        <mxCell id="3dAcGPY2wm8vC8ehP3SY-2" value="id" style="ellipse;whiteSpace=wrap;html=1;align=center;" vertex="1" parent="1">
          <mxGeometry x="60" y="120" width="50" height="20" as="geometry" />
        </mxCell>
        <mxCell id="3dAcGPY2wm8vC8ehP3SY-3" value="name" style="ellipse;whiteSpace=wrap;html=1;align=center;" vertex="1" parent="1">
          <mxGeometry x="50" y="160" width="50" height="30" as="geometry" />
        </mxCell>
        <mxCell id="3dAcGPY2wm8vC8ehP3SY-4" value="year_of_creation" style="ellipse;whiteSpace=wrap;html=1;align=center;" vertex="1" parent="1">
          <mxGeometry x="260" y="90" width="100" height="40" as="geometry" />
        </mxCell>
        <mxCell id="3dAcGPY2wm8vC8ehP3SY-5" value="president_name" style="ellipse;whiteSpace=wrap;html=1;align=center;" vertex="1" parent="1">
          <mxGeometry x="100" y="190" width="100" height="40" as="geometry" />
        </mxCell>
        <mxCell id="3dAcGPY2wm8vC8ehP3SY-7" value="boardmembers_number" style="ellipse;whiteSpace=wrap;html=1;align=center;" vertex="1" parent="1">
          <mxGeometry x="110" y="75" width="140" height="40" as="geometry" />
        </mxCell>
        <mxCell id="3dAcGPY2wm8vC8ehP3SY-8" value="funding" style="ellipse;whiteSpace=wrap;html=1;align=center;" vertex="1" parent="1">
          <mxGeometry x="210" y="200" width="100" height="40" as="geometry" />
        </mxCell>
        <mxCell id="3dAcGPY2wm8vC8ehP3SY-11" value="has" style="shape=rhombus;perimeter=rhombusPerimeter;whiteSpace=wrap;html=1;align=center;" vertex="1" parent="1">
          <mxGeometry x="350" y="132.5" width="70" height="45" as="geometry" />
        </mxCell>
        <mxCell id="3dAcGPY2wm8vC8ehP3SY-12" value="" style="endArrow=none;html=1;rounded=0;" edge="1" parent="1">
          <mxGeometry relative="1" as="geometry">
            <mxPoint x="280" y="154.5" as="sourcePoint" />
            <mxPoint x="350" y="155" as="targetPoint" />
          </mxGeometry>
        </mxCell>
        <mxCell id="3dAcGPY2wm8vC8ehP3SY-13" value="" style="line;strokeWidth=1;rotatable=0;dashed=0;labelPosition=right;align=left;verticalAlign=middle;spacingTop=0;spacingLeft=6;points=[];portConstraint=eastwest;" vertex="1" parent="1">
          <mxGeometry x="420" y="150" width="70" height="10" as="geometry" />
        </mxCell>
        <mxCell id="3dAcGPY2wm8vC8ehP3SY-15" value="&lt;font style=&quot;font-size: 20px;&quot;&gt;Club&lt;/font&gt;" style="whiteSpace=wrap;html=1;align=center;" vertex="1" parent="1">
          <mxGeometry x="490" y="130" width="140" height="47.5" as="geometry" />
        </mxCell>
        <mxCell id="3dAcGPY2wm8vC8ehP3SY-16" value="manager_name" style="ellipse;whiteSpace=wrap;html=1;align=center;" vertex="1" parent="1">
          <mxGeometry x="460" y="75" width="100" height="40" as="geometry" />
        </mxCell>
        <mxCell id="3dAcGPY2wm8vC8ehP3SY-17" value="id" style="ellipse;whiteSpace=wrap;html=1;align=center;" vertex="1" parent="1">
          <mxGeometry x="490" y="190" width="40" height="20" as="geometry" />
        </mxCell>
        <mxCell id="3dAcGPY2wm8vC8ehP3SY-18" value="name" style="ellipse;whiteSpace=wrap;html=1;align=center;" vertex="1" parent="1">
          <mxGeometry x="570" y="190" width="60" height="30" as="geometry" />
        </mxCell>
        <mxCell id="3dAcGPY2wm8vC8ehP3SY-19" value="phonenumber" style="ellipse;whiteSpace=wrap;html=1;align=center;" vertex="1" parent="1">
          <mxGeometry x="590" y="75" width="90" height="40" as="geometry" />
        </mxCell>
        <mxCell id="3dAcGPY2wm8vC8ehP3SY-20" value="address" style="ellipse;whiteSpace=wrap;html=1;align=center;" vertex="1" parent="1">
          <mxGeometry x="650" y="140" width="70" height="30" as="geometry" />
        </mxCell>
      </root>
    </mxGraphModel>
  </diagram>
</mxfile>
